<svg xmlns="http://www.w3.org/2000/svg" viewBox="0 0 200 38"><defs><style>.cls-1{fill:#314485;}.cls-2{fill:#d11317;}</style></defs><title>rds_assets</title><g id="Tryb_izolacji" data-name="Tryb izolacji"><path class="cls-1" d="M56.08,26.53,53.28,22h-1v4.49h-1.8V20.25h1.71l-1.71-2.7v-1.8H54s3.6,0,3.6,3.14a2.93,2.93,0,0,1-2.37,3l2.92,4.68Zm-1.81-6.29c.48,0,1.57-.28,1.57-1.35,0-1.34-1.8-1.34-1.8-1.34H52.59Z"/><polygon class="cls-1" points="61.66 17.55 61.66 20.25 66.14 20.25 66.14 22.04 61.66 22.04 61.66 24.73 67.04 24.73 67.04 26.53 59.86 26.53 59.86 15.76 67.04 15.76 67.04 17.55 61.66 17.55"/><polygon class="cls-1" points="74.31 17.4 72.05 17.4 72.05 26.53 70.26 26.53 70.26 17.4 68 17.4 68 15.76 74.31 15.76 74.31 17.4"/><path class="cls-1" d="M81.45,26.53,78.65,22h-1v4.49h-1.8V20.25h1.7l-1.7-2.7v-1.8H79.4s3.6,0,3.6,3.14a2.93,2.93,0,0,1-2.37,3l2.93,4.68Zm-1.82-6.29c.48,0,1.57-.28,1.57-1.35,0-1.34-1.8-1.34-1.8-1.34H78Z"/><path class="cls-1" d="M90.11,26.67c-7.11,0-7.09-11.05,0-11.05s7.08,11.05,0,11.05m0-9.3c-4.64,0-4.66,7.56,0,7.56s4.67-7.56,0-7.56"/><path class="cls-2" d="M102.25,15.78c2.57,0,6.19.6,6.19,5.3,0,4.53-3.55,5.3-6.19,5.3h-1.77V15.78Zm4.41,5.3c0-4.24-4.41-3.57-4.41-3.57v7.14s4.41.61,4.41-3.57"/><path class="cls-2" d="M115.39,25.16h-3.72l-.46,1.22h-1.9l4.22-10.9,4.24,10.9h-1.91Zm-3.15-1.53h2.58L113.53,20Z"/><polygon class="cls-2" points="127.79 26.38 126 26.38 120.73 18.84 120.73 26.38 118.96 26.38 118.96 15.78 120.75 15.78 126.03 23.32 126.03 15.78 127.79 15.78 127.79 26.38"/><path class="cls-2" d="M137.65,23.73,138.89,25a5.28,5.28,0,0,1-3.74,1.54,5.2,5.2,0,0,1-5.32-5.45,5.3,5.3,0,0,1,9.06-3.89l-1.24,1.24a3.57,3.57,0,0,0-2.5-1,3.4,3.4,0,0,0-3.51,3.68,3.44,3.44,0,0,0,3.51,3.68,3.53,3.53,0,0,0,2.5-1"/><polygon class="cls-2" points="142.47 17.55 142.47 20.21 146.88 20.21 146.88 21.96 142.47 21.96 142.47 24.61 147.77 24.61 147.77 26.38 140.7 26.38 140.7 15.78 147.77 15.78 147.77 17.55 142.47 17.55"/><path class="cls-1" d="M152.59,25.1c0-.09.06-.13.17-.13h.91c.08,0,.18,0,.18.13a.55.55,0,0,0,.61.53.57.57,0,0,0,.62-.55.67.67,0,0,0-.62-.62,2.32,2.32,0,0,1-.89-.19,1.69,1.69,0,0,1-1-1.57,1.79,1.79,0,0,1,1.87-1.8,1.75,1.75,0,0,1,1.86,1.7.17.17,0,0,1-.18.15h-.9a.17.17,0,0,1-.17-.15.56.56,0,0,0-.61-.52.57.57,0,0,0-.61.62.59.59,0,0,0,.61.6,2.25,2.25,0,0,1,.88.19,1.7,1.7,0,0,1,1,1.59,1.75,1.75,0,0,1-1.87,1.75,1.72,1.72,0,0,1-1.87-1.73"/><path class="cls-1" d="M164.34,22a.15.15,0,0,1-.17.14h-1v4.47a.15.15,0,0,1-.17.14h-.91c-.12,0-.17-.07-.17-.14V22.14h-1a.16.16,0,0,1-.18-.14v-.83A.17.17,0,0,1,161,21h3.19a.16.16,0,0,1,.17.15Z"/><path class="cls-1" d="M169,24.87v-3.7a.17.17,0,0,1,.18-.15h.91a.16.16,0,0,1,.17.15v3.68a.94.94,0,0,0,1,.78c.48,0,.95-.25.95-.76v-3.7a.17.17,0,0,1,.18-.15h.92a.16.16,0,0,1,.16.15v3.7a2,2,0,0,1-2.21,2,2,2,0,0,1-2.22-2"/><path class="cls-1" d="M179.75,21c1.39,0,3.35.32,3.35,2.87s-1.93,2.9-3.35,2.9h-.91a.17.17,0,0,1-.18-.14V21.12a.16.16,0,0,1,.18-.14Zm.17,4.61a1.66,1.66,0,0,0,1.92-1.74c0-1.32-.74-1.73-1.77-1.73a.75.75,0,0,0-.15,0Z"/><path class="cls-1" d="M188.12,21.12a.16.16,0,0,1,.18-.14h.91a.15.15,0,0,1,.17.14v5.49a.16.16,0,0,1-.17.14h-.91a.17.17,0,0,1-.18-.14Z"/><path class="cls-1" d="M200,23.85a2.88,2.88,0,1,1-5.75,0,2.88,2.88,0,1,1,5.75,0m-1.28,0a1.61,1.61,0,1,0-3.19,0,1.6,1.6,0,1,0,3.19,0"/><polygon class="cls-1" points="24.06 4.12 24.06 4.79 38.06 4.79 38.06 37.22 0.67 37.22 0.67 4.79 14.66 4.79 14.66 4.12 0 4.12 0 37.89 38.73 37.89 38.73 4.12 24.06 4.12"/><polygon class="cls-2" points="24.06 5.77 24.06 6.44 36.41 6.44 36.41 35.57 2.32 35.57 2.32 6.44 14.66 6.44 14.66 5.77 1.65 5.77 1.65 36.24 37.08 36.24 37.08 5.77 24.06 5.77"/><path class="cls-1" d="M21,2.05a9.74,9.74,0,0,1,.7,3.53,18.67,18.67,0,0,1-.78,4.61c-.12.46-.39.47-.62.32S20,10,20,9.66a3.34,3.34,0,0,1,.17-.84s0-.47,0-.67a1.41,1.41,0,0,1,.16-.52,1.31,1.31,0,0,1-.13-.49s-.87.75-1.4.75a.8.8,0,0,1-.71-.45s-.33.36-.49.36S17,7.7,17,7.31a4.48,4.48,0,0,1,.26-1.09.7.7,0,0,1-.22-.45,1.91,1.91,0,0,1,.11-.54A.53.53,0,0,1,17,4.87c0-.21.27-.73.65-.73a5.25,5.25,0,0,1-.06-.73,6,6,0,0,1,.3-1.24c-.25,0-.83-.08-.83-.55s0-1.23,0-1.62h4.59c0,1.27-.21,1.92-.66,2.05M18,3.41A5.09,5.09,0,0,1,17.66,6c-.43.63-.43,1-.33.94a.45.45,0,0,1,.51,0c.15.15,0,.46.08.46a2.3,2.3,0,0,0,.48-.83,4.36,4.36,0,0,1,.91-1.43A3,3,0,0,0,20.05,4c0-.18.13-.19.13,0s-.58,1-.58,1.13.42.1.47.14,0,.12-.22.12a1.61,1.61,0,0,1-.46-.08l-.12.17a3.13,3.13,0,0,1,.46.36c.07.11.28.38.46.38,0,0,.13-.5.2-.8s.42-.32.42-.22a2.45,2.45,0,0,0-.29,1.22,3,3,0,0,0,.24,1.23c0,.13-.31.33-.31.64s.18.38.18.52-.41.42-.41,1.07.47.65.39.59-.05-.19-.05-.42.25-.35.33-.44a16,16,0,0,0,.66-4c0-1.61-.9-3.88-1.73-3.88-1.52,0-1.86.9-1.86,1.72M20.89,9.8s-.21.06-.21.18,0,.35.05.35a1.33,1.33,0,0,0,.16-.53m-2.12-2A6.13,6.13,0,0,0,20.17,7a1.57,1.57,0,0,1,0-.53c-.21,0-.56-.37-.56-.37-.35,0-.58.6-.66.48a1.1,1.1,0,0,0-.27-.29,8.17,8.17,0,0,1-.48,1.07s.32.47.58.47m-1.51-.64a.38.38,0,0,0,.24.46c.23,0,.31-.16.31-.36S17.74,7,17.6,7a.42.42,0,0,0-.34.15M19,5.75,18.85,6l.19.29s.24-.35.45-.37l-.15-.09a.66.66,0,0,0-.17.1s-.2-.15-.2-.15m-1.7-.09c0,.29.12.34.12.34a3,3,0,0,0,.35-1.13c-.12,0-.47.5-.47.79m.16-1.14a.53.53,0,0,0-.16.5c.2-.2.46-.41.46-.41s0-.31,0-.31a2.36,2.36,0,0,0-.27.22m0-3.28,0,.44a16.5,16.5,0,0,1,2.25-.27,4,4,0,0,1,1.47.3c.11,0,.16-.25.16-.25a4.7,4.7,0,0,0-1.63-.31c-.89,0-2.21.09-2.21.09"/><path class="cls-1" d="M27,24.31c0-.08.07-.14.18-.14H28c.09,0,.18.06.18.14a.56.56,0,0,0,.62.53.57.57,0,0,0,.62-.55.66.66,0,0,0-.62-.61,2.25,2.25,0,0,1-.9-.2,1.68,1.68,0,0,1-1-1.57,1.8,1.8,0,0,1,1.88-1.8,1.74,1.74,0,0,1,1.85,1.7.15.15,0,0,1-.17.14h-.91a.16.16,0,0,1-.17-.14.55.55,0,0,0-.6-.51.57.57,0,0,0-.62.61.6.6,0,0,0,.62.61,2.22,2.22,0,0,1,.87.19,1.66,1.66,0,0,1,1,1.58,1.88,1.88,0,0,1-3.75,0"/><path class="cls-2" d="M19.1,15.34c2.68,0,6.46.62,6.46,5.52,0,4.73-3.71,5.53-6.46,5.53H17.25v-11Zm4.59,5.52c0-4.41-4.59-3.72-4.59-3.72v7.45s4.59.63,4.59-3.73"/><path class="cls-1" d="M13.8,26.36l-2.87-4.61H9.87v4.61H8V19.92H9.77L8,17.15V15.3H11.7s3.69,0,3.69,3.23a3,3,0,0,1-2.43,3l3,4.8ZM11.94,19.9c.48,0,1.61-.29,1.61-1.37,0-1.38-1.85-1.38-1.85-1.38H10.21Z"/></g></svg>